<?xml version="1.0" encoding="UTF-8"?><svg id="Layer_1" xmlns="http://www.w3.org/2000/svg" xmlns:xlink="http://www.w3.org/1999/xlink" viewBox="0 0 190.56 181.23"><defs><style>.cls-1,.cls-2,.cls-3,.cls-4,.cls-5{stroke:#1d1d1b;stroke-miterlimit:10;}.cls-1,.cls-3{fill:none;}.cls-1,.cls-5{stroke-width:.5px;}.cls-6{fill:url(#linear-gradient-2);}.cls-2{fill:#fff;stroke-width:6px;}.cls-3{stroke-width:5px;}.cls-4{fill:url(#linear-gradient);stroke-width:2px;}.cls-7{fill:url(#linear-gradient-5);}.cls-5{fill:url(#linear-gradient-6);}.cls-8{fill:url(#linear-gradient-3);}.cls-9{fill:url(#linear-gradient-4);}</style><linearGradient id="linear-gradient" x1="99.52" y1="164.94" x2="208.24" y2="164.94" gradientTransform="matrix(1, 0, 0, 1, 0, 0)" gradientUnits="userSpaceOnUse"><stop offset="0" stop-color="#b17f4a"/><stop offset="1" stop-color="#683c11"/></linearGradient><linearGradient id="linear-gradient-2" x1="-73.31" y1="333.07" x2="-30.29" y2="312.41" gradientTransform="translate(174.18 -152.18) rotate(15.15)" gradientUnits="userSpaceOnUse"><stop offset=".01" stop-color="#2fac66"/><stop offset="1" stop-color="#063" stop-opacity=".5"/></linearGradient><linearGradient id="linear-gradient-3" x1="-53.37" y1="322.74" x2="-41.02" y2="314.46" gradientTransform="translate(174.18 -152.18) rotate(15.15)" gradientUnits="userSpaceOnUse"><stop offset="0" stop-color="#fff" stop-opacity=".6"/><stop offset="1" stop-color="#000" stop-opacity="0"/></linearGradient><linearGradient id="linear-gradient-4" x1="-112.26" y1="530.65" x2="-69.25" y2="509.99" gradientTransform="translate(401.95 -241.29) rotate(34.3)" xlink:href="#linear-gradient-2"/><linearGradient id="linear-gradient-5" x1="-92.32" y1="520.32" x2="-79.97" y2="512.03" gradientTransform="translate(401.95 -241.29) rotate(34.3)" xlink:href="#linear-gradient-3"/><linearGradient id="linear-gradient-6" x1="196.71" y1="144.07" x2="196.87" y2="144.07" gradientTransform="matrix(1, 0, 0, 1, 0, 0)" gradientUnits="userSpaceOnUse"><stop offset="0" stop-color="#00a19a"/><stop offset="1" stop-color="#36a9e1"/></linearGradient></defs><path class="cls-4" d="M175.02,164.94c0,1.81-1.66,3.52-4.61,5.03-3.29,1.69-8.18,3.13-14.15,4.19-6.7,1.19-14.77,1.9-23.46,1.94-.26,0-.52,0-.78,0s-.52,0-.78,0c-8.7-.04-16.76-.75-23.46-1.94-5.97-1.06-10.86-2.5-14.15-4.19-2.95-1.51-4.61-3.22-4.61-5.03,0-6.17,19.25-11.17,43-11.17s43,5,43,11.17Z"/><path class="cls-3" d="M174.95,124.91c-7.81,7.81-18.2,23.62-15.83,25.99s10.63-2.04,18.44-9.85,12.23-16.07,9.85-18.44-4.65-5.51-12.46,2.3Z"/><g><path class="cls-6" d="M56.95,137.09s-11.62-3.8-21.77,1.33c-5.4,2.74-9.49,9.88-13.16,17.34,0,0,13.93,1.55,23.75-2.52,6.2-2.57,9.02-7.46,11.18-16.15Z"/><path class="cls-8" d="M50.65,139.13s-7.47,8.21-15.14,8.88"/></g><g><path class="cls-9" d="M52.8,134.79s-9.73-7.4-21-5.88c-6,.81-12.21,6.22-18.12,12.06,0,0,12.65,6.04,23.27,5.41,6.7-.4,10.97-4.09,15.86-11.59Z"/><path class="cls-7" d="M46.18,134.65s-9.74,5.3-17.21,3.42"/></g><path class="cls-2" d="M156.27,174.16c-3.88,2.39-13.27,4.07-24.25,4.07s-20.36-1.68-24.24-4.07c6.7,.7,14.76,1.11,23.46,1.13,.26,0,.52,0,.78,0s.52,0,.78,0c8.7-.02,16.76-.44,23.46-1.13Z"/><path class="cls-1" d="M134.78,125.33s-3.13-14.22,9.4-29.4c12.53-15.18,36.87-44.9,21.45-65.46C150.2,9.91,133.62-4.23,90.83,1.55c0,0-12.59,5.78-17.09,21.21,0,0-.22-.4-.66-1.08C59.87,1,30.09-.41,14.99,18.93c-11.58,14.82-25.08,41.07-2.62,73.39,39.52,56.87,76.65,59.22,78.46,63.62"/><path class="cls-1" d="M134.78,125.33s-7.69-18.17,3.11-32.97c10.81-14.8,33.68-40.94,20.38-60.98-4.72-7.11-10.82-13.23-17.58-16.69-12.28-6.3-27.21-6.95-51.02-3.31,0,0-10.86,5.64-14.74,20.67,0,0-.19-.39-.57-1.05C62.99,10.84,30.07,6,17.04,24.85,7.06,39.3-.41,66.29,21.08,96.39c11.85,16.6,24.7,26.04,33.18,33.42,18.66,16.24,34.76,14.99,36.56,20.34"/><path class="cls-5" d="M173,126.42c-.38-1.37,.08-2.71-.52-4.01-7.18-1.46-21.38-2.48-37.92-2.57,21.53,.14,38.43,1.24,38.43,3.77s-16.9,5.55-38.43,5.69c-.77,0-1.55,0-2.33,0s-1.56,0-2.33,0c-21.53-.14-38.37-3.33-38.37-5.86s21.49-3.46,43.02-3.61c-16.54,.09-35.4,1.1-42.57,2.57-.59,1.3-.14,2.95-.52,4.33-.63,2.27-.64,4.3-.64,6.71,0,18.33,18.35,34.85,41.91,34.85s39.96-16.52,39.96-34.85c0-2.41,.93-4.76,.3-7.03Z"/></svg>